<?xml version="1.0" encoding="UTF-8" standalone="no"?>
<svg
   id="ff13122b-c9a2-4eb3-994d-202711f70fc9"
   data-name="Layer 1"
   width="746"
   height="721.34323"
   viewBox="0 0 746 721.34323"
   version="1.1"
   sodipodi:docname="undraw_Agreement_re_d4dv.svg"
   inkscape:version="1.1 (c68e22c387, 2021-05-23)"
   xmlns:inkscape="http://www.inkscape.org/namespaces/inkscape"
   xmlns:sodipodi="http://sodipodi.sourceforge.net/DTD/sodipodi-0.dtd"
   xmlns="http://www.w3.org/2000/svg"
   xmlns:svg="http://www.w3.org/2000/svg">
  <defs
     id="defs93" />
  <sodipodi:namedview
     id="namedview91"
     pagecolor="#505050"
     bordercolor="#eeeeee"
     borderopacity="1"
     inkscape:pageshadow="0"
     inkscape:pageopacity="0"
     inkscape:pagecheckerboard="0"
     showgrid="false"
     inkscape:zoom="1.1672668"
     inkscape:cx="204.32346"
     inkscape:cy="538.00894"
     inkscape:window-width="1920"
     inkscape:window-height="1050"
     inkscape:window-x="-11"
     inkscape:window-y="-11"
     inkscape:window-maximized="1"
     inkscape:current-layer="ff13122b-c9a2-4eb3-994d-202711f70fc9" />
  <path
     d="M907.60236,809.95184v-72.34S935.794,788.89781,907.60236,809.95184Z"
     transform="translate(-227 -89.32838)"
     fill="#f1f1f1"
     id="path2"
     style="fill:#ff6600" />
  <path
     d="M909.34383,809.93912l-53.28962-48.92125S912.8994,774.9334,909.34383,809.93912Z"
     transform="translate(-227 -89.32838)"
     fill="#f1f1f1"
     id="path4"
     style="fill:#ff6600" />
  <path
     d="m 133.69816,297.19401 3.19769,-2.63738 a 0.05669092,0.08000028 0 0 1 0.0572,0.13814 l -3.19769,2.63738 a 0.05669096,0.08000033 0 0 1 -0.0572,-0.13814 z"
     fill="#ccc"
     id="path14"
     style="fill:#ffffff;stroke-width:0.0173165" />
  <path
     d="M618.59271,548.50763a8.67233,8.67233,0,0,1,.872,1.051l40.84857-.99946,4.76541-8.70792,14.08178,5.47419-6.93809,16.23551a6.59134,6.59134,0,0,1-6.8516,3.95362l-46.15126-5.57517a8.64875,8.64875,0,1,1-.62683-11.43176Z"
     transform="translate(-227 -89.32838)"
     fill="#ffb7b7"
     id="path32" />
  <polygon
     points="524.753 707.256 511.322 707.256 504.932 655.449 524.755 655.45 524.753 707.256"
     fill="#ffb7b7"
     id="polygon34" />
  <path
     d="M755.17806,809.60436l-43.308-.00161V809.055a16.85758,16.85758,0,0,1,16.85668-16.8564h.00107l26.451.00107Z"
     transform="translate(-227 -89.32838)"
     fill="#2f2e41"
     id="path36" />
  <polygon
     points="402.792 706.958 390.441 701.681 404.916 651.529 423.145 659.317 402.792 706.958"
     fill="#ffb7b7"
     id="polygon38" />
  <path
     d="M627.82776,809.60436l-39.826-17.014.21518-.50375a16.85759,16.85759,0,0,1,22.12325-8.87963l.001.00042,24.3243,10.39164Z"
     transform="translate(-227 -89.32838)"
     fill="#2f2e41"
     id="path40" />
  <polygon
     points="459.468 470.402 458.496 486.141 486.887 489.179 516.593 492.358 507.849 468.459 459.468 470.402"
     fill="#ffb7b7"
     id="polygon42" />
  <path
     d="M684.60236,575.67162l-11.02912-76.88748,19.11648-6.26508,5.61475-7.7001,27.32289,1.61686,4.01137,8.98546,14.56924,6.88423-2.239,41.58174,1.63341,34.78437Z"
     transform="translate(-227 -89.32838)"
     fill="#2f2e41"
     id="path44"
     style="fill:#ffffff" />
  <path
     d="M677.66064,555.06728l-19.44456-7.77975.08288-.346c.08348-.3488,8.35927-34.93247,9.45817-40.48989,1.14475-5.79,5.3269-7.39073,5.50452-7.4559l.12974-.04788,7.69528,2.34222,3.37955,26.55448Z"
     transform="translate(-227 -89.32838)"
     fill="#2f2e41"
     id="path46"
     style="fill:#ffffff" />
  <path
     d="M639.79576,787.18106l-25.88371-5.30948,41.36969-114.1538,14.15862-38.93618s8.9802-31.21887,13.03747-43.30013l2.44851-16.21028,57.96181,6.41562s16.18859,23.77448,11.27061,62.52545l2.22432,145.65037L730.49937,785.19,708.819,638.29442l-38.05126,80.5271s-11.99335,34.36378-20.57424,41.81214Z"
     transform="translate(-227 -89.32838)"
     fill="#2f2e41"
     id="path48"
     style="fill:#ff6600" />
  <path
     d="M719.64415,581.093a8.67278,8.67278,0,0,1,1.36357.07512L748.0481,550.5344l-3.14545-9.415,13.58853-6.60419,7.18819,16.12634a6.59137,6.59137,0,0,1-1.75929,7.71237l-35.46688,30.052a8.64875,8.64875,0,1,1-8.80905-7.31289Z"
     transform="translate(-227 -89.32838)"
     fill="#ffb7b7"
     id="path50" />
  <path
     d="M745.8896,553.5156l-11.2798-26.53276,4.39939-18.48144,4.74015-5.9887a2.73032,2.73032,0,0,1,2.19377.02051c1.74821.70363,3.23693,2.86,4.42494,6.40951l10.57114,30.11085Z"
     transform="translate(-227 -89.32838)"
     fill="#2f2e41"
     id="path52"
     style="fill:#ffffff" />
  <path
     d="M687.36746,474.98733V454.98412a26.8043,26.8043,0,0,1,53.6086,0v20.00321a3.60464,3.60464,0,0,1-3.60058,3.60058H690.968A3.60463,3.60463,0,0,1,687.36746,474.98733Z"
     transform="translate(-227 -89.32838)"
     fill="#2f2e41"
     id="path54" />
  <circle
     cx="481.66375"
     cy="369.1419"
     r="19.65197"
     fill="#ffb7b7"
     id="circle56" />
  <path
     d="M681.0262,456.58438a21.22738,21.22738,0,0,1,21.20341-21.2034h4.00083a21.22721,21.22721,0,0,1,21.20321,21.2034v.40006H718.979l-2.88366-8.07473-.57666,8.07473H711.1492l-1.45492-4.07409-.29106,4.07409h-28.377Z"
     transform="translate(-227 -89.32838)"
     fill="#2f2e41"
     id="path58" />
  <path
     d="M706.72972,480.8373a3.54728,3.54728,0,0,1-.28188-3.76623c4.23955-8.06379,10.17546-22.96384,2.29646-32.15282l-.5663-.66026h22.87359v34.34145l-20.77892,3.66621a3.67755,3.67755,0,0,1-.63721.05626A3.58611,3.58611,0,0,1,706.72972,480.8373Z"
     transform="translate(-227 -89.32838)"
     fill="#2f2e41"
     id="path60" />
  <polygon
     points="212.904 695.94 225.042 700.278 247.551 655.523 229.636 649.121 212.904 695.94"
     fill="#9f616a"
     id="polygon62" />
  <path
     d="M432.60236,795.92854l5.62164-15.7298,23.90478,8.54334a16.197,16.197,0,0,1,9.79011,20.67889l-.17712.49491Z"
     transform="translate(-227 -89.32838)"
     fill="#2f2e41"
     id="path64" />
  <polygon
     points="291.836 707.946 304.726 707.945 310.859 658.226 291.834 658.227 291.836 707.946"
     fill="#9f616a"
     id="polygon66" />
  <path
     d="M515.54791,793.06587l25.3854-.001h.001a16.1777,16.1777,0,0,1,16.178,16.17747v.52571l-41.56364.00154Z"
     transform="translate(-227 -89.32838)"
     fill="#2f2e41"
     id="path68" />
  <path
     d="M489.45887,479.62865l5.60594-11.07722s20.884,5.23229,22.78254,17.3361Z"
     transform="translate(-227 -89.32838)"
     fill="#f1f1f1"
     id="path70" />
  <polygon
     points="239.328 516.96 254.573 602.034 214.093 673.622 238.276 683.085 279.282 613.691 284.539 594.765 287.693 693.599 309.503 692.937 319.502 600.65 303.464 514.857 239.328 516.96"
     fill="#2f2e41"
     id="polygon72" />
  <path
     d="M495.26738,626.39974c-22.39644,0-36.61635-4.28374-36.93491-4.35151l-.5157-.10986L469.4823,567.8526l.5252-49.88931c0-21.14145,13.91444-36.728,15.84531-38.16653a9.09551,9.09551,0,0,1,4.83743-5.94508c4.64131-2.10593,10.313.421,10.55173.52982l17.02328,6.38248.08009.23616c.2051.60478,22.62721,74.21379,22.62721,74.21379s-1.35707,64.315-1.83016,66.422C539.14239,621.6359,507.71147,626.39974,495.26738,626.39974Z"
     transform="translate(-227 -89.32838)"
     fill="#3f3d56"
     id="path74" />
  <circle
     cx="285.4768"
     cy="352.72704"
     r="23.00821"
     fill="#9f616a"
     id="circle76" />
  <polygon
     points="259.823 432.715 300.076 488.877 306.02 462.65 259.823 432.715"
     opacity="0.2"
     id="polygon78" />
  <path
     d="M613.02352,560.25673a9.87366,9.87366,0,0,1-14.82487-3.07339l-34.64668,5.5456,7.506-16.61679,31.75033-2.71866a9.92718,9.92718,0,0,1,10.21526,16.86324Z"
     transform="translate(-227 -89.32838)"
     fill="#9f616a"
     id="path80" />
  <polygon
     points="345.842 455.838 358.291 454.617 361.741 471.983 346.076 472.26 345.842 455.838"
     fill="#f1f1f1"
     id="polygon82" />
  <path
     d="M583.04706,567.36242l-60.96976-5.42884L491.29145,512.973l-.09483-.4327a16.85541,16.85541,0,0,1,31.4666-11.28612l18.072,35.25105,36.47268,5.51312Z"
     transform="translate(-227 -89.32838)"
     fill="#3f3d56"
     id="path84" />
  <path
     d="M492.87889,462.03183l19.09695.68547c1.16406.04178,4.32334-12.521,4.7369-15.12708a7.11274,7.11274,0,0,1,7.41971-5.754c1.42953.135,5.03429-2.53568,8.754-5.69809,7.062-6.00388,6.69461-17.28005-1.063-22.35333q-.318-.208-.62428-.37983c-4.89391-2.73917-10.61888-3.659-16.22678-3.72917-5.08371-.06358-10.31154.57628-14.79018,2.98249-8.02926,4.31383-12.3024,13.74076-12.67776,22.84774s2.5442,18.012,5.85721,26.50324"
     transform="translate(-227 -89.32838)"
     fill="#2f2e41"
     id="path86" />
  <path
     d="M971.60236,810.67162H228a1,1,0,0,1,0-2H972a1,1,0,0,1,1,1C973,810.22386,972.15461,810.67162,971.60236,810.67162Z"
     transform="translate(-227 -89.32838)"
     fill="#cbcbcb"
     id="path88"
     style="fill:#ff6600" />
</svg>
